<svg xmlns="http://www.w3.org/2000/svg" width="512" height="512"><path fill="#5bcefa" d="M0 0h512v512H0z"/><path d="M217.9 230.7a37.007 37.007 0 0 0 15.9-15.6q5.8-10.5 5.8-26.7v-80h-28v80.2q0 11.6-3.6 18.1-3.6 6.5-13 6.5-9.2 0-12.7-6.4-3.5-6.4-3.5-17.6v-80.8h-28.4V189q0 21.8 11.8 34.3 11.8 12.5 32.6 12.5a50.559 50.559 0 0 0 23.1-5.1zm102.3 2.3v-57.4q0-8.6 5-13.5a15.848 15.848 0 0 1 11.4-4.9q11.6 0 11.6 19.4V233h28.4v-56.6q0-14.2-4.6-22.9a30.3 30.3 0 0 0-12-12.8 32.126 32.126 0 0 0-15.8-4.1q-8.2 0-13.7 3.6a46.538 46.538 0 0 0-10.3 9.4v-10.8h-28.6V233h28.6zM337 400.1a39.89 39.89 0 0 0 14.4-15.6q5.6-10.3 5.6-25.5v-59h17.8v-22.6h-68.4V300h22.2v56q0 10.6-3.6 16.9-3.6 6.3-9.8 6.3a18.758 18.758 0 0 1-10.3-3 25.344 25.344 0 0 1-7.7-7.6l-13.4 23a31.841 31.841 0 0 0 15.2 10.6 59.842 59.842 0 0 0 19.4 3.2 35.52 35.52 0 0 0 18.6-5.3zm-109.7-13.5q12.1-17 12.1-48.2 0-30.8-12.1-47.6-12.1-16.8-35.7-16.8-24 0-35.9 16.8-11.9 16.8-11.9 47.6 0 31.2 11.9 48.1 11.9 16.9 35.9 16.9 23.6.2 35.7-16.8zm-50.6-15.9q-5.1-10.3-5.1-32.7 0-41.6 20-41.6 9.2 0 14.6 10.4 5.4 10.4 5.4 31.2 0 22.4-5.4 32.7-5.4 10.3-14.6 10.3-9.8 0-14.9-10.3z" fill="#f8f8f8"/></svg>
